<svg width="156" height="167" viewBox="0 0 156 167" fill="none" xmlns="http://www.w3.org/2000/svg">
<path d="M2.09454 105.084L0 130.581C7.24138 140.792 16.7271 149.318 27.7678 155.542C38.8085 161.766 51.1267 165.53 63.8274 166.561C93.4592 168.995 120.782 156.538 137.983 135.609L140.919 99.8713C132.9 132.976 100.945 156.221 64.92 153.261C35.0828 150.811 10.9351 131.085 2.09454 105.084ZM132.457 47.5104L133.397 36.0588C133.585 33.5314 134.217 31.0562 135.268 28.7407C120.536 12.3162 99.7957 2.11033 77.485 0.306708C57.5242 -1.36191 37.6267 3.81481 21.2562 14.936L21.2571 15.3445L21.2491 15.5245L19.7741 33.48C27.1512 26.3847 36.0329 20.934 45.8073 17.5031C55.5816 14.0724 66.0164 12.7431 76.3924 13.6072C100.473 15.5853 120.843 28.8143 132.457 47.5104Z" fill="#F6A708"/>
<path d="M62.6568 26.1254C66.7445 26.1254 70.4596 27.1457 73.813 29.184C76.9502 31.0908 79.6731 33.9597 81.9722 37.8148L82.4263 38.599C84.6672 42.5829 86.4216 47.608 87.6812 53.6859L87.9273 54.9154L87.9283 54.9213C89.2667 61.4794 89.938 69.2905 89.938 78.3597C89.938 80.2726 89.9003 82.2046 89.8247 84.1556L89.7368 86.1127V86.1254C89.6729 88.6167 89.5159 91.2008 89.2691 93.8773L53.9029 98.5736L53.4195 98.6381L53.4722 99.1234C53.7438 101.635 54.1505 104.014 54.6949 106.259L54.937 107.107C55.5126 109.028 56.2212 110.773 57.064 112.338L57.0699 112.349L57.0757 112.359C58.049 113.981 59.1822 115.312 60.479 116.341L60.7408 116.542C62.1877 117.627 63.9474 118.158 65.9908 118.158C69.6462 118.158 73.3016 117.954 76.9566 117.548V117.549L76.9654 117.547C80.4538 117.095 84.0963 116.58 87.8931 116.004L90.4898 134.087C84.7918 136.027 79.5552 137.344 74.7769 138.041L73.8062 138.175H73.8052C68.6979 138.848 64.5125 139.181 61.2427 139.181C57.4536 139.181 54.1218 138.483 51.2359 137.1L50.6646 136.814C47.8143 135.326 45.313 133.375 43.1587 130.957L42.732 130.468C40.6816 127.981 38.9482 125.142 37.5337 121.947L37.2554 121.302C35.8776 117.982 34.7637 114.515 33.9136 110.899L33.7466 110.174C32.9843 106.773 32.4017 103.346 31.9986 99.8939L31.8365 98.4125C31.5013 94.3872 31.3345 90.5992 31.3345 87.0482C31.3345 78.7382 31.9546 71.0543 33.1919 63.9955L33.4468 62.5922L33.4478 62.5912C34.7679 55.5511 36.6448 49.4389 39.0738 44.2484L39.5669 43.223C42.1507 37.991 45.3178 33.9072 49.0591 30.9525L49.4234 30.6703L49.4273 30.6664C53.3127 27.6371 57.7168 26.1254 62.6568 26.1254ZM61.7974 51.1918C59.8305 51.3953 58.2323 52.275 57.0288 53.8119L56.7935 54.1283C55.6762 55.7058 54.8183 57.6958 54.2076 60.0824L54.0884 60.5648L54.0865 60.5746C53.6087 62.7842 53.2888 65.2486 53.1255 67.9652L53.065 69.1449C52.9298 72.3175 52.8628 75.5243 52.8628 78.764V82.4974L53.4546 82.3871L70.2242 79.2552L70.6324 79.1791V74.9252C70.6324 69.5431 70.2473 65.2819 69.4624 62.1635L69.3003 61.5551C68.4754 58.573 67.5804 56.2894 66.6011 54.7386L66.4038 54.4388L66.4019 54.4359L66.1626 54.1029C64.9545 52.4784 63.5489 51.4774 61.9341 51.1967L61.8667 51.1849L61.7974 51.1918ZM155.3 58.8431V76.4467L100.838 76.6459V57.3549L155.3 58.8431Z" fill="white" stroke="white"/>
</svg>
